<svg xmlns="http://www.w3.org/2000/svg" viewBox="0 0 400 300" width="406" height="306" class="illustration styles_illustrationTablet__1DWOa"><g id="_229_city_buildings_flatline" data-name="#229_city_buildings_flatline"><path d="M85.61,154,73,164.6c30.2-13.7,59.79-26.75,90.82-38.45L249,94.05l70.79-26.67c-1.55.58-7.23-1.88-9-2.12-5.52-.72-10.85-.51-15.83,2.15s-7.8,7.28-13.71,7.39c-7.4.14-11.1-6.33-17.08-9.22-10.43-5-17.08,6.56-26.24,4.54-4.2-.93-7.84-4.12-12.35-5a37.27,37.27,0,0,0-38.81,17c-6.46-3.91-14.72-4.2-21.9-1.83S151.48,87.44,146.4,93a98.72,98.72,0,0,0-10.49,14.38c-1.83,2.94-3.77,9.33-6.11,10.62-3.21,1.76-8.29-.16-12.26,2.68-.88.64-7.66,9.78-6.24,9.87a18.73,18.73,0,0,0-18.4,12.56C92.3,145,92,147,91,148.67a15.57,15.57,0,0,1-3.63,3.84Z" fill="#fff"></path><path d="M73,165.1a.48.48,0,0,1-.42-.23.49.49,0,0,1,.1-.65l14.41-12.1a14.9,14.9,0,0,0,3.52-3.7,15,15,0,0,0,1.36-3.72c.16-.57.31-1.15.49-1.71a19.23,19.23,0,0,1,17.88-12.93h.36c.53-2.42,6.16-9.43,6.59-9.74,2.35-1.68,5.08-1.79,7.48-1.87a11.28,11.28,0,0,0,4.83-.85c1.38-.76,2.73-3.77,3.93-6.42a36.9,36.9,0,0,1,2-4A101,101,0,0,1,146,92.7c5.8-6.39,12.07-10.73,18.66-12.9,7.6-2.51,15.75-1.89,21.89,1.63a37.75,37.75,0,0,1,39.06-16.78,25.1,25.1,0,0,1,6.68,2.64A24.35,24.35,0,0,0,238,69.63c3.9.87,7.33-.86,11-2.68,4.61-2.32,9.37-4.72,15.38-1.82a31.51,31.51,0,0,1,6,4.12c3.26,2.64,6.31,5.15,10.88,5,3.71-.07,6.21-2,8.86-4.12A32.86,32.86,0,0,1,294.69,67c4.43-2.37,9.56-3.07,16.14-2.2a22.68,22.68,0,0,1,3.14.89c1.91.62,4.78,1.56,5.62,1.25h0a.5.5,0,1,1,.36.93L164,126.62c-31.63,11.92-62.33,25.52-90.79,38.44A.52.52,0,0,1,73,165.1Zm37.33-34A18.18,18.18,0,0,0,93.38,143.3c-.18.55-.33,1.1-.48,1.66a16,16,0,0,1-1.47,4,16.14,16.14,0,0,1-3.74,4l-1.76,1.48h0l-9.86,8.27c27.55-12.47,57.11-25.49,87.53-36.95l153.83-58c-1-.24-2.31-.64-3.76-1.11a23.08,23.08,0,0,0-3-.85c-6.44-.85-11.23-.2-15.52,2.09A31.77,31.77,0,0,0,290.69,71c-2.78,2.19-5.41,4.26-9.46,4.34H281c-4.77,0-8.08-2.68-11.28-5.28a30.65,30.65,0,0,0-5.78-4c-5.56-2.68-9.9-.5-14.5,1.81-3.62,1.82-7.38,3.71-11.63,2.77a25.44,25.44,0,0,1-5.93-2.43,24.53,24.53,0,0,0-6.41-2.55,36.72,36.72,0,0,0-38.28,16.75.51.51,0,0,1-.69.16c-5.94-3.6-14-4.27-21.48-1.79-6.42,2.12-12.55,6.36-18.23,12.62a100.19,100.19,0,0,0-10.43,14.31,35.59,35.59,0,0,0-1.94,3.91c-1.32,2.93-2.69,6-4.36,6.88a11.76,11.76,0,0,1-5.27,1c-2.38.09-4.83.18-6.94,1.69-.82.59-5.9,7.62-6.21,9.07a.5.5,0,0,1,.18.42.48.48,0,0,1-.53.47h0C111,131.07,110.62,131.06,110.29,131.06ZM85.61,154h0Z" fill="#d1d3d4"></path><path d="M265.27,151.07v0c14.13-4.76,28.44-9.11,42.65-13.64l40.64-13s-18.19-5.74-26.56-3.64c-.91-6-7.71-10.26-13.6-8.76s-9.8,8.13-8.62,14.09c-7-3.14-16.39,2.46-16.95,10.16-3.33-2.16-7.92,0-10.38,3.09C269.6,143,268.16,147.48,265.27,151.07Z" fill="#fff"></path><path d="M265.25,151.6a.5.5,0,0,1-.42-.24.51.51,0,0,1,.07-.62h0l0,0h0a36.61,36.61,0,0,0,3.6-5.83,39,39,0,0,1,3.57-5.82c2.49-3.16,6.9-5.22,10.35-3.58a13.32,13.32,0,0,1,16.74-10.15c-.71-6,3.38-12.32,9.13-13.79a11.64,11.64,0,0,1,9.25,1.76,11.17,11.17,0,0,1,4.87,6.88C331,118.46,348,123.77,348.7,124a.5.5,0,0,1,0,1l-40.64,13q-6.85,2.19-13.73,4.34c-9.5,3-19.33,6.07-28.92,9.3A.41.41,0,0,1,265.25,151.6ZM279.75,136a9.5,9.5,0,0,0-6.92,3.78,38.77,38.77,0,0,0-3.47,5.67,47.71,47.71,0,0,1-2.75,4.71c9.11-3,18.41-6,27.42-8.8q6.87-2.15,13.73-4.33l39.09-12.48c-4.55-1.31-18-4.87-24.74-3.18a.51.51,0,0,1-.4-.07.49.49,0,0,1-.22-.34,10,10,0,0,0-4.52-6.73,10.66,10.66,0,0,0-8.45-1.62c-5.55,1.42-9.41,7.73-8.26,13.51a.49.49,0,0,1-.69.55,12.19,12.19,0,0,0-16.25,9.75.53.53,0,0,1-.28.41.48.48,0,0,1-.49,0A5.05,5.05,0,0,0,279.75,136Z" fill="#d1d3d4"></path><path d="M49.42,100.82l-1.5,1.76c1.85-2.18,7-3.4,9.64-4.69C63,95.24,178.39,40.38,178.39,40.38s-16.29,4.3-24.68,4.29c-3.19,0-6.42-.21-9.56.4s-6.25,2.19-7.87,5c-3.15-5.26-10.84-6.29-16.35-3.59s-9.16,8.1-11.88,13.6c-4-1.36-8-3.18-12.41-2.13a21.54,21.54,0,0,0-8.84,4.59c-4.73,4.05-7.72,9.84-9.23,15.88a5.26,5.26,0,0,1-.88,2.14,5.36,5.36,0,0,1-2.76,1.37C63.86,84.8,56.3,92.81,49.42,100.82Z" fill="#fff"></path><path d="M47.92,103.08a.49.49,0,0,1-.32-.12.51.51,0,0,1-.06-.71L49,100.5h0c6.9-8,14.49-16.12,24.75-19.1l.17-.05a4.66,4.66,0,0,0,2.35-1.16,4.6,4.6,0,0,0,.75-1.85c1.2-4.8,3.79-11.41,9.41-16.23a22,22,0,0,1,9-4.7c3.94-.95,7.58.34,11.11,1.59l1.17.41c3.47-6.88,7.26-11.16,11.91-13.43,5.28-2.58,13-1.88,16.57,3.13a12.36,12.36,0,0,1,7.78-4.53,37.8,37.8,0,0,1,7.72-.43l2,0c8.24,0,24.36-4.23,24.52-4.27a.5.5,0,0,1,.35.93c-1.16.55-115.48,54.89-120.83,57.5-.86.42-2,.83-3.1,1.25-2.43.9-5.19,1.93-6.37,3.32h0A.49.49,0,0,1,47.92,103.08Zm50.39-45a10.69,10.69,0,0,0-2.55.3,20.9,20.9,0,0,0-8.64,4.48c-5.42,4.64-7.92,11.06-9.07,15.62a5.66,5.66,0,0,1-1,2.34,5.47,5.47,0,0,1-2.84,1.48l-.17,0c-9.56,2.78-16.81,10.18-23.37,17.75,1.15-.55,2.43-1,3.64-1.47s2.19-.81,3-1.2c4.75-2.32,95.13-45.29,116.39-55.4-5.47,1.28-14.38,3.13-20,3.13-.66,0-1.31,0-2,0a37.06,37.06,0,0,0-7.52.41c-3.43.67-6.17,2.39-7.54,4.71a.55.55,0,0,1-.43.25.5.5,0,0,1-.43-.24c-3.07-5.13-10.59-5.9-15.7-3.4-4.53,2.21-8.23,6.46-11.65,13.37a.49.49,0,0,1-.61.25L106.3,60A24.29,24.29,0,0,0,98.31,58.09Z" fill="#d1d3d4"></path><path d="M337.73,260.12H56.37a.5.5,0,0,1-.5-.5.5.5,0,0,1,.5-.5H337.73a.5.5,0,0,1,.5.5A.5.5,0,0,1,337.73,260.12Z" fill="#231f20"></path><polygon points="287.82 92.9 289.28 94.02 291.35 130.53 287.82 128.09 287.82 92.9" fill="#4d8d4c"></polygon><path d="M291.34,131a.51.51,0,0,1-.28-.09l-3.52-2.44a.49.49,0,0,1-.21-.41V92.9a.49.49,0,0,1,.27-.45.51.51,0,0,1,.53,0l1.46,1.13a.52.52,0,0,1,.19.37l2.06,36.5a.5.5,0,0,1-.25.47A.54.54,0,0,1,291.34,131Zm-3-3.2,2.46,1.71-2-35.26-.46-.36Z" fill="#231f20"></path><polygon points="283.93 129.88 286.93 93.46 287.82 92.9 287.82 128.09 283.93 129.88" fill="#231f20"></polygon><path d="M283.93,130.38a.52.52,0,0,1-.29-.09.55.55,0,0,1-.21-.46l3-36.41a.46.46,0,0,1,.23-.38l.89-.57a.52.52,0,0,1,.51,0,.5.5,0,0,1,.26.44v35.19a.51.51,0,0,1-.3.46l-3.89,1.78A.54.54,0,0,1,283.93,130.38Zm3.4-35.58-2.83,34.27,2.83-1.3Z" fill="#231f20"></path><polygon points="287.82 129.88 300.45 138.23 300.45 155.69 287.82 150.81 287.82 129.88" fill="#4d8d4c"></polygon><path d="M300.45,156.19a.58.58,0,0,1-.18,0l-12.63-4.88a.49.49,0,0,1-.31-.47V129.88a.49.49,0,0,1,.26-.44.49.49,0,0,1,.51,0l12.63,8.35a.5.5,0,0,1,.22.42v17.46a.5.5,0,0,1-.22.41A.47.47,0,0,1,300.45,156.19Zm-12.12-5.73L300,155V138.5l-11.62-7.69Z" fill="#231f20"></path><polygon points="275.01 155.69 275.01 137.57 287.82 129.88 287.82 150.81 275.01 155.69" fill="#231f20"></polygon><path d="M275,156.19a.51.51,0,0,1-.28-.09.53.53,0,0,1-.22-.41V137.57a.52.52,0,0,1,.25-.43l12.81-7.69a.47.47,0,0,1,.5,0,.51.51,0,0,1,.26.44V150.8a.5.5,0,0,1-.33.47l-12.81,4.88A.58.58,0,0,1,275,156.19Zm.5-18.34V155l11.82-4.5v-19.7Z" fill="#231f20"></path><polygon points="306.55 258.87 306.55 160.47 287.4 152.03 287.4 258.87 306.55 258.87" fill="#4d8d4c"></polygon><path d="M306.55,259.37H287.4a.5.5,0,0,1-.5-.5V152a.5.5,0,0,1,.23-.42.48.48,0,0,1,.48,0L306.75,160a.51.51,0,0,1,.3.46v98.4A.5.5,0,0,1,306.55,259.37Zm-18.65-1h18.15V160.8l-18.15-8Z" fill="#231f20"></path><polygon points="287.4 258.87 287.4 152.03 268.4 157.8 268.4 258.87 287.4 258.87" fill="#231f20"></polygon><path d="M287.4,259.37h-19a.5.5,0,0,1-.5-.5V157.8a.5.5,0,0,1,.35-.48l19-5.77a.49.49,0,0,1,.44.07.51.51,0,0,1,.2.41V258.87A.5.5,0,0,1,287.4,259.37Zm-18.5-1h18V152.7l-18,5.47Z" fill="#231f20"></path><polygon points="267.13 156.67 287.82 147.38 287.82 152.03 267.13 160.47 267.13 156.67" fill="#231f20"></polygon><path d="M267.13,161a.57.57,0,0,1-.28-.08.51.51,0,0,1-.22-.42v-3.8a.52.52,0,0,1,.3-.46l20.69-9.29a.51.51,0,0,1,.48,0,.5.5,0,0,1,.23.42V152a.51.51,0,0,1-.32.46l-20.69,8.44A.43.43,0,0,1,267.13,161Zm.5-4v2.74l19.7-8v-3.54Z" fill="#231f20"></path><polygon points="287.82 147.38 306.55 156.95 306.55 160.47 287.82 152.03 287.82 147.38" fill="#fff"></polygon><path d="M306.55,161a.52.52,0,0,1-.21,0l-18.72-8.45a.49.49,0,0,1-.29-.45v-4.65a.52.52,0,0,1,.23-.43.53.53,0,0,1,.49,0l18.73,9.58a.49.49,0,0,1,.27.44v3.52a.5.5,0,0,1-.23.42A.53.53,0,0,1,306.55,161Zm-18.22-9.27,17.72,8v-2.44l-17.72-9.06Z" fill="#231f20"></path><polygon points="287.82 129.88 273.42 138.51 273.42 135.51 287.82 126.69 287.82 129.88" fill="#231f20"></polygon><path d="M273.42,139a.45.45,0,0,1-.25-.07.49.49,0,0,1-.25-.43v-3a.5.5,0,0,1,.24-.43l14.4-8.82a.51.51,0,0,1,.77.42v3.2a.5.5,0,0,1-.25.42l-14.4,8.64A.48.48,0,0,1,273.42,139Zm.5-3.22v1.84l13.41-8v-2Zm13.91-5.91Z" fill="#231f20"></path><polygon points="287.82 126.69 301.29 135.79 301.29 138.51 287.82 129.88 287.82 126.69" fill="#fff"></polygon><path d="M301.29,139a.56.56,0,0,1-.27-.08l-13.46-8.63a.48.48,0,0,1-.23-.42v-3.2a.51.51,0,0,1,.26-.44.54.54,0,0,1,.52,0l13.46,9.1a.51.51,0,0,1,.22.42v2.72a.51.51,0,0,1-.26.44A.48.48,0,0,1,301.29,139Zm-13-9.41,12.46,8v-1.55l-12.46-8.42Z" fill="#231f20"></path><polygon points="288.44 258.87 288.44 187.22 255.59 178.77 255.59 258.87 288.44 258.87" fill="#fff"></polygon><path d="M288.44,259.37H255.59a.5.5,0,0,1-.5-.5v-80.1a.49.49,0,0,1,.19-.39.48.48,0,0,1,.43-.09l32.85,8.45a.49.49,0,0,1,.38.48v71.65A.5.5,0,0,1,288.44,259.37Zm-32.35-1h31.85V187.61l-31.85-8.19Z" fill="#231f20"></path><polygon points="255.59 258.87 255.59 176.87 220.86 188.16 220.86 258.87 255.59 258.87" fill="#231f20"></polygon><path d="M255.59,259.37H220.86a.5.5,0,0,1-.5-.5V188.16a.5.5,0,0,1,.35-.48l34.72-11.28a.5.5,0,0,1,.66.47v82A.5.5,0,0,1,255.59,259.37Zm-34.23-1h33.73V177.56l-33.73,11Z" fill="#231f20"></path><polygon points="281.49 174.69 281.49 184.4 255.59 176.87 255.59 166.1 281.49 174.69" fill="#fff"></polygon><path d="M281.49,184.9a.36.36,0,0,1-.14,0l-25.9-7.53a.5.5,0,0,1-.36-.48V166.1a.49.49,0,0,1,.21-.4.48.48,0,0,1,.45-.07l25.9,8.59a.49.49,0,0,1,.34.47v9.71a.48.48,0,0,1-.2.4A.45.45,0,0,1,281.49,184.9Zm-25.4-8.4,24.9,7.24v-8.69l-24.9-8.25Z" fill="#231f20"></path><polygon points="218.42 191.16 255.59 180.46 255.59 174.13 218.42 185.81 218.42 191.16" fill="#231f20"></polygon><path d="M218.42,191.66a.49.49,0,0,1-.3-.1.51.51,0,0,1-.2-.4v-5.35a.48.48,0,0,1,.35-.47l37.17-11.69a.49.49,0,0,1,.44.07.52.52,0,0,1,.21.41v6.33a.5.5,0,0,1-.36.48l-37.17,10.7A.32.32,0,0,1,218.42,191.66Zm.5-5.48v4.32l36.17-10.41v-5.28Z" fill="#231f20"></path><polygon points="226.31 185.11 226.31 177.93 255.59 168.64 255.59 174.13 226.31 185.11" fill="#231f20"></polygon><path d="M226.31,185.61a.52.52,0,0,1-.29-.09.51.51,0,0,1-.21-.41v-7.18a.5.5,0,0,1,.35-.48l29.28-9.29a.49.49,0,0,1,.44.07.52.52,0,0,1,.21.41v5.49a.51.51,0,0,1-.33.47l-29.28,11A.51.51,0,0,1,226.31,185.61Zm.5-7.32v6.1l28.28-10.61v-4.46Z" fill="#231f20"></path><polygon points="255.59 168.64 224.48 178.77 224.48 173.71 255.59 163.15 255.59 168.64" fill="#231f20"></polygon><path d="M224.48,179.27a.53.53,0,0,1-.3-.09.51.51,0,0,1-.2-.41v-5.06a.5.5,0,0,1,.34-.48l31.11-10.56a.52.52,0,0,1,.45.07.51.51,0,0,1,.21.41v5.49a.5.5,0,0,1-.35.47l-31.11,10.14A.39.39,0,0,1,224.48,179.27Zm.5-5.21v4l30.11-9.81v-4.43Zm30.61-5.42h0Z" fill="#231f20"></path><polygon points="255.59 174.13 289.8 185.11 289.8 191.16 255.59 180.46 255.59 174.13" fill="#4d8d4c"></polygon><path d="M289.8,191.66l-.15,0-34.21-10.7a.5.5,0,0,1-.35-.48v-6.33a.54.54,0,0,1,.2-.41.52.52,0,0,1,.45-.07l34.21,11a.5.5,0,0,1,.35.48v6a.52.52,0,0,1-.21.41A.5.5,0,0,1,289.8,191.66ZM256.09,180.1l33.21,10.38v-5l-33.21-10.66Z" fill="#231f20"></path><polygon points="255.59 168.64 283.6 176.87 283.6 172.75 255.59 163.15 255.59 168.64" fill="#4d8d4c"></polygon><path d="M283.6,177.37a.36.36,0,0,1-.14,0l-28-8.23a.51.51,0,0,1-.36-.48v-5.49a.51.51,0,0,1,.21-.41.52.52,0,0,1,.45-.07l28,9.61a.5.5,0,0,1,.33.47v4.12a.48.48,0,0,1-.2.4A.45.45,0,0,1,283.6,177.37Zm-27.51-9.11,27,8v-3.1l-27-9.26Z" fill="#231f20"></path><polygon points="234 258.87 234 112.33 224.9 106.52 225.37 69.53 202.84 51.13 199.51 96.98 207.98 258.87 234 258.87" fill="#4d8d4c"></polygon><path d="M234,259.37H208a.49.49,0,0,1-.5-.47L199,97l3.34-45.9a.51.51,0,0,1,.3-.43.5.5,0,0,1,.51.08l22.52,18.39a.51.51,0,0,1,.19.39l-.46,36.72,8.86,5.65a.52.52,0,0,1,.23.43V258.87A.5.5,0,0,1,234,259.37Zm-25.55-1H233.5V112.6L224.63,107a.54.54,0,0,1-.23-.43l.46-36.76L203.27,52.13,200,97Z" fill="#231f20"></path><polygon points="208.1 258.87 208.1 95.81 156.67 110.45 156.67 258.87 208.1 258.87" fill="#231f20"></polygon><path d="M208.1,259.37H156.67a.5.5,0,0,1-.5-.5V110.45a.48.48,0,0,1,.36-.48L208,95.33a.47.47,0,0,1,.44.08.51.51,0,0,1,.2.4V258.87A.5.5,0,0,1,208.1,259.37Zm-50.93-1H207.6V96.47l-50.43,14.36Z" fill="#231f20"></path><polygon points="197.84 258.87 197.84 161.78 165.32 145.27 154.76 151.19 154.76 258.87 197.84 258.87" fill="#fff"></polygon><path d="M197.84,259.37H154.76a.5.5,0,0,1-.5-.5V151.19a.51.51,0,0,1,.26-.44l10.56-5.92a.52.52,0,0,1,.47,0l32.52,16.52a.48.48,0,0,1,.27.44v97.09A.5.5,0,0,1,197.84,259.37Zm-42.58-1h42.08V162.09l-32-16.26-10.07,5.65Z" fill="#231f20"></path><polygon points="160.39 258.87 160.39 149.22 128.86 154 128.86 258.87 160.39 258.87" fill="#231f20"></polygon><path d="M160.39,259.37H128.86a.5.5,0,0,1-.5-.5V154a.51.51,0,0,1,.42-.5l31.54-4.77a.49.49,0,0,1,.57.49V258.87A.5.5,0,0,1,160.39,259.37Zm-31-1h30.53V149.8l-30.53,4.63Z" fill="#231f20"></path><polygon points="126.04 158.78 163.3 148.93 163.3 141.89 126.04 152.87 126.04 158.78" fill="#231f20"></polygon><path d="M126,159.28a.47.47,0,0,1-.3-.1.52.52,0,0,1-.2-.4v-5.91a.5.5,0,0,1,.36-.48l37.26-11a.49.49,0,0,1,.44.08.48.48,0,0,1,.2.4v7a.5.5,0,0,1-.37.48l-37.26,9.86Zm.5-6v4.89l36.26-9.59v-6Z" fill="#231f20"></path><polygon points="163.3 148.93 200.38 162.72 200.38 155.83 163.3 141.89 163.3 148.93" fill="#4d8d4c"></polygon><path d="M200.38,163.22a.57.57,0,0,1-.18,0L163.13,149.4a.51.51,0,0,1-.33-.47v-7a.51.51,0,0,1,.68-.47l37.07,13.94a.5.5,0,0,1,.33.47v6.89a.5.5,0,0,1-.22.41A.47.47,0,0,1,200.38,163.22ZM163.8,148.58,199.88,162v-5.83L163.8,142.61Z" fill="#231f20"></path><path d="M167.67,257.08a.5.5,0,0,1-.5-.49c-.38-33.21-.38-67.16,0-100.91a.5.5,0,0,1,1,0c-.38,33.74-.38,67.69,0,100.89a.5.5,0,0,1-.49.5Z" fill="#d1d3d4"></path><path d="M175.74,256.9a.5.5,0,0,1-.5-.5c-.19-33.31-.19-65.55,0-98.55a.5.5,0,0,1,.5-.5h0a.51.51,0,0,1,.5.5c-.19,33-.19,65.23,0,98.55a.51.51,0,0,1-.5.5Z" fill="#d1d3d4"></path><path d="M183.8,257.12h0a.5.5,0,0,1-.5-.5V160a.5.5,0,0,1,.5-.5.51.51,0,0,1,.5.5v96.61A.5.5,0,0,1,183.8,257.12Z" fill="#d1d3d4"></path><path d="M191.86,257h0a.5.5,0,0,1-.5-.5c.2-30.81.2-62.53,0-94.27a.5.5,0,0,1,.5-.5h0a.5.5,0,0,1,.5.5c.2,31.74.2,63.46,0,94.27A.5.5,0,0,1,191.86,257Z" fill="#d1d3d4"></path><polygon points="107.04 258.87 107.04 202.24 86.77 207.31 86.77 258.87 107.04 258.87" fill="#231f20"></polygon><path d="M107,259.37H86.77a.5.5,0,0,1-.5-.5V207.3a.5.5,0,0,1,.37-.48l20.28-5.07a.5.5,0,0,1,.62.49v56.63A.5.5,0,0,1,107,259.37Zm-19.77-1h19.27V202.88L87.27,207.7Z" fill="#231f20"></path><polygon points="149.65 258.87 149.65 207.49 107.04 202.24 107.04 258.87 149.65 258.87" fill="#fff"></polygon><path d="M149.65,259.37H107a.5.5,0,0,1-.5-.5V202.24a.5.5,0,0,1,.56-.5L149.71,207a.5.5,0,0,1,.44.49v51.38A.5.5,0,0,1,149.65,259.37Zm-42.11-1h41.61V207.93l-41.61-5.13Z" fill="#231f20"></path><polygon points="84.7 207.96 84.7 204.02 107.04 197.45 107.04 202.24 84.7 207.96" fill="#231f20"></polygon><path d="M84.7,208.46a.5.5,0,0,1-.31-.1.51.51,0,0,1-.19-.4V204a.5.5,0,0,1,.36-.48L106.9,197a.53.53,0,0,1,.44.08.51.51,0,0,1,.2.4v4.79a.51.51,0,0,1-.38.48l-22.33,5.73Zm.5-4.07v2.93l21.34-5.47v-3.73Z" fill="#231f20"></path><polygon points="107.04 197.45 151.67 204.32 151.67 207.7 107.04 202.24 107.04 197.45" fill="#4d8d4c"></polygon><path d="M151.67,208.2h-.06L107,202.73a.5.5,0,0,1-.44-.49v-4.79a.5.5,0,0,1,.17-.38.46.46,0,0,1,.4-.11l44.63,6.87a.51.51,0,0,1,.43.5v3.37a.54.54,0,0,1-.17.38A.5.5,0,0,1,151.67,208.2Zm-44.13-6.41,43.63,5.35v-2.39L107.54,198Z" fill="#231f20"></path><path d="M144.51,214.32h-.06l-29.77-3.51a.5.5,0,0,1-.44-.55.49.49,0,0,1,.55-.44l29.78,3.51a.5.5,0,0,1-.06,1Z" fill="#d1d3d4"></path><path d="M144.51,222.07h0l-29.77-2.95a.49.49,0,0,1-.45-.54.5.5,0,0,1,.54-.45l29.78,2.94a.5.5,0,0,1-.05,1Z" fill="#d1d3d4"></path><path d="M144.51,229.67h0l-29.66-2a.5.5,0,0,1,.07-1l29.65,2a.5.5,0,0,1,0,1Z" fill="#d1d3d4"></path><path d="M144.57,237h0L115,235.3a.51.51,0,0,1-.47-.53.48.48,0,0,1,.53-.47L144.6,236a.51.51,0,0,1,.47.53A.5.5,0,0,1,144.57,237Z" fill="#d1d3d4"></path><path d="M144.63,244.33h0l-29.78-.85a.5.5,0,0,1,0-1l29.78.85a.49.49,0,0,1,.48.51A.51.51,0,0,1,144.63,244.33Z" fill="#d1d3d4"></path><path d="M144.63,251.63H115a.5.5,0,0,1,0-1h29.65a.5.5,0,0,1,0,1Z" fill="#d1d3d4"></path><path d="M115,259.37a.5.5,0,0,1-.5-.49c-.22-18.11-.29-36.85-.22-55.69a.5.5,0,0,1,.5-.5h0a.5.5,0,0,1,.5.5c-.07,18.84,0,37.57.22,55.68a.5.5,0,0,1-.49.5Z" fill="#fff"></path><path d="M144.51,259.37h0a.5.5,0,0,1-.5-.5c.11-16.54.14-33.54.11-52a.5.5,0,0,1,.5-.5h0a.5.5,0,0,1,.5.5c0,18.46,0,35.47-.11,52A.5.5,0,0,1,144.51,259.37Z" fill="#fff"></path><path d="M115,259.37a.5.5,0,0,1-.5-.49c-.22-18.11-.29-36.85-.22-55.69a.5.5,0,0,1,.5-.5h0a.5.5,0,0,1,.5.5c-.07,18.84,0,37.57.22,55.68a.5.5,0,0,1-.49.5Z" fill="#d1d3d4"></path><path d="M144.51,259.37h0a.5.5,0,0,1-.5-.5c.11-16.54.14-33.54.11-52a.5.5,0,0,1,.5-.5h0a.5.5,0,0,1,.5.5c0,18.46,0,35.47-.11,52A.5.5,0,0,1,144.51,259.37Z" fill="#d1d3d4"></path><path d="M115,259.37a.5.5,0,0,1-.5-.49c-.22-18.11-.29-36.85-.22-55.69a.5.5,0,0,1,.5-.5h0a.5.5,0,0,1,.5.5c-.07,18.84,0,37.57.22,55.68a.5.5,0,0,1-.49.5Z" fill="none" stroke="#231f20" stroke-linecap="round" stroke-linejoin="round"></path><path d="M144.51,259.37h0a.5.5,0,0,1-.5-.5c.11-16.54.14-33.54.11-52a.5.5,0,0,1,.5-.5h0a.5.5,0,0,1,.5.5c0,18.46,0,35.47-.11,52A.5.5,0,0,1,144.51,259.37Z" fill="none" stroke="#231f20" stroke-linecap="round" stroke-linejoin="round"></path><polygon points="168.3 112.33 168.3 64.65 202.84 51.13 202.84 103.31 168.3 112.33" fill="#231f20"></polygon><path d="M168.3,112.83a.48.48,0,0,1-.3-.11.5.5,0,0,1-.2-.39V64.65a.51.51,0,0,1,.32-.47l34.54-13.51a.52.52,0,0,1,.47,0,.51.51,0,0,1,.21.41v52.19a.5.5,0,0,1-.37.48l-34.54,9ZM168.8,65v46.69l33.54-8.75V51.87Z" fill="#231f20"></path><line x1="234" y1="112.33" x2="208.1" y2="95.81" fill="#4d8d4c"></line><path d="M234,112.83a.56.56,0,0,1-.27-.08l-25.9-16.52a.5.5,0,0,1-.16-.69.53.53,0,0,1,.7-.16l25.9,16.52a.5.5,0,0,1,.15.69A.49.49,0,0,1,234,112.83Z" fill="#231f20"></path><path d="M214.81,257.33a.5.5,0,0,1-.5-.5V105.71a.5.5,0,1,1,1,0V256.83A.5.5,0,0,1,214.81,257.33Z" fill="#fff"></path><path d="M221.75,257.33a.5.5,0,0,1-.5-.5V109.08a.51.51,0,0,1,.5-.5.5.5,0,0,1,.5.5V256.83A.5.5,0,0,1,221.75,257.33Z" fill="#fff"></path><path d="M228.7,257.33a.5.5,0,0,1-.5-.5V113.21a.5.5,0,1,1,1,0V256.83A.5.5,0,0,1,228.7,257.33Z" fill="#fff"></path><path d="M210.49,94.94a.5.5,0,0,1-.5-.5V60.66a.5.5,0,0,1,.5-.5.5.5,0,0,1,.5.5V94.44A.5.5,0,0,1,210.49,94.94Z" fill="#fff"></path><path d="M215.94,98.59a.5.5,0,0,1-.5-.5V65.16a.5.5,0,0,1,.5-.5.5.5,0,0,1,.5.5V98.09A.5.5,0,0,1,215.94,98.59Z" fill="#fff"></path><path d="M221.05,101.52a.5.5,0,0,1-.5-.5V69a.5.5,0,1,1,1,0V101A.5.5,0,0,1,221.05,101.52Z" fill="#fff"></path><path d="M264.74,259.37a.5.5,0,0,1-.5-.5V183.32a.5.5,0,0,1,1,0v75.55A.5.5,0,0,1,264.74,259.37Z" fill="#231f20"></path><path d="M273.42,259.37a.5.5,0,0,1-.5-.5v-72.6a.5.5,0,0,1,1,0v72.6A.5.5,0,0,1,273.42,259.37Z" fill="#231f20"></path><path d="M280.88,260.12a.51.51,0,0,1-.5-.5V188.5a.51.51,0,0,1,.5-.5.5.5,0,0,1,.5.5v71.12A.5.5,0,0,1,280.88,260.12Z" fill="#231f20"></path><path d="M294.56,257.61a.5.5,0,0,1-.5-.5V158.3a.5.5,0,0,1,1,0v98.81A.5.5,0,0,1,294.56,257.61Z" fill="#fff"></path><path d="M301.29,257.61a.5.5,0,0,1-.5-.5V160.47a.51.51,0,0,1,.5-.5.5.5,0,0,1,.5.5v96.64A.5.5,0,0,1,301.29,257.61Z" fill="#fff"></path><path d="M297.68,141.49a.45.45,0,0,1-.27-.08l-7-4.6a.5.5,0,0,1-.15-.69.51.51,0,0,1,.7-.14l7,4.6a.5.5,0,0,1,.14.69A.52.52,0,0,1,297.68,141.49Z" fill="#fff"></path></g></svg>